<svg width="72" height="20" viewBox="0 0 252 26" fill="none" xmlns="http://www.w3.org/2000/svg">
<path d="M0.304 1.6H6.512V18.72H15.568V24H0.304V1.6ZM22.153 24V18.976H33.449V24H22.153ZM22.153 6.624V1.6H33.449V6.624H22.153ZM22.153 14.784V9.92H32.809V14.784H22.153ZM17.929 1.6H23.881V24H17.929V1.6ZM37.5815 1.6H43.7895V16.128C43.7895 17.152 44.0562 17.984 44.5895 18.624C45.1228 19.2427 45.9228 19.552 46.9895 19.552C48.0775 19.552 48.8882 19.2427 49.4215 18.624C49.9548 17.984 50.2215 17.152 50.2215 16.128V1.6H56.4295V16.64C56.4295 18.1547 56.1842 19.4453 55.6935 20.512C55.2028 21.5787 54.5202 22.4533 53.6455 23.136C52.7708 23.7973 51.7682 24.288 50.6375 24.608C49.5068 24.928 48.2908 25.088 46.9895 25.088C45.7095 25.088 44.4935 24.928 43.3415 24.608C42.2108 24.288 41.2082 23.7973 40.3335 23.136C39.4802 22.4533 38.8082 21.5787 38.3175 20.512C37.8268 19.4453 37.5815 18.1547 37.5815 16.64V1.6ZM81.9225 13.28L85.8585 1.6H93.2825L83.3305 25.376L75.9385 13.024L68.5785 25.376L58.6265 1.6H66.0505L69.9865 13.28L75.9385 0.48L81.9225 13.28ZM95.6478 1.6H101.984V24H95.6478V1.6ZM113.145 13.696L111.897 24H105.305L109.177 0.48L118.905 13.376L128.665 0.48L132.537 24H125.945L124.697 13.696L118.905 21.92L113.145 13.696ZM139.803 20.384L139.995 15.808H151.483L151.642 20.384H139.803ZM145.659 10.784L142.715 17.504L143.099 18.88L140.507 24H133.466L145.659 0.0959988L157.883 24H150.843L148.283 19.104L148.635 17.504L145.659 10.784ZM160.085 1.6H166.293V18.72H175.349V24H160.085V1.6ZM182.615 20.384L182.807 15.808H194.295L194.455 20.384H182.615ZM188.471 10.784L185.527 17.504L185.911 18.88L183.319 24H176.279L188.471 0.0959988L200.695 24H193.655L191.095 19.104L191.447 17.504L188.471 10.784ZM217.906 1.6H223.858V25.12L208.85 12.608V24H202.898V0.48L217.906 12.992V1.6ZM239.756 16.096V11.488H251.372C251.522 13.3227 251.362 15.0507 250.892 16.672C250.423 18.2933 249.687 19.712 248.684 20.928C247.682 22.144 246.423 23.104 244.908 23.808C243.394 24.4907 241.655 24.832 239.692 24.832C237.879 24.832 236.204 24.544 234.668 23.968C233.154 23.392 231.831 22.5813 230.7 21.536C229.591 20.4693 228.727 19.2 228.108 17.728C227.49 16.2347 227.18 14.592 227.18 12.8C227.18 11.008 227.5 9.38667 228.14 7.936C228.78 6.48533 229.676 5.248 230.828 4.224C231.98 3.17867 233.335 2.38933 234.892 1.856C236.45 1.30133 238.135 1.024 239.948 1.024C241.591 1.024 243.052 1.26933 244.332 1.76C245.634 2.22933 246.775 2.88 247.756 3.712C248.738 4.52267 249.591 5.45067 250.316 6.496L244.652 9.216C244.204 8.40533 243.607 7.72267 242.86 7.168C242.114 6.61333 241.143 6.336 239.948 6.336C238.818 6.336 237.772 6.58133 236.812 7.072C235.852 7.56267 235.084 8.288 234.508 9.248C233.954 10.208 233.676 11.392 233.676 12.8C233.676 14.1867 233.943 15.392 234.476 16.416C235.01 17.4187 235.746 18.1867 236.684 18.72C237.623 19.2533 238.711 19.52 239.948 19.52C240.695 19.52 241.356 19.4453 241.932 19.296C242.508 19.1253 243.01 18.8907 243.436 18.592C243.863 18.272 244.226 17.8987 244.524 17.472C244.844 17.0453 245.1 16.5867 245.292 16.096H239.756Z" fill="black"/>
</svg>
