<svg width="95" height="41" viewBox="0 0 95 41" fill="none" xmlns="http://www.w3.org/2000/svg">
<path d="M22.9829 32H0.922363V0.491211H7.22852V25.6938H22.9829V32ZM45.5181 20.0249C45.5181 21.7827 45.2031 23.4233 44.5732 24.9468C43.9434 26.4556 43.0864 27.7666 42.0024 28.8799C40.9185 29.9785 39.644 30.8501 38.1792 31.4946C36.729 32.1245 35.1689 32.4395 33.499 32.4395C31.8438 32.4395 30.2837 32.1245 28.8188 31.4946C27.3687 30.8501 26.0942 29.9785 24.9956 28.8799C23.9116 27.7666 23.0547 26.4556 22.4248 24.9468C21.7949 23.4233 21.48 21.7827 21.48 20.0249C21.48 18.2378 21.7949 16.5825 22.4248 15.0591C23.0547 13.5356 23.9116 12.2246 24.9956 11.126C26.0942 10.0127 27.3687 9.14111 28.8188 8.51123C30.2837 7.88135 31.8438 7.56641 33.499 7.56641C35.1689 7.56641 36.729 7.8667 38.1792 8.46729C39.644 9.05322 40.9185 9.89551 42.0024 10.9941C43.0864 12.0781 43.9434 13.3892 44.5732 14.9272C45.2031 16.4507 45.5181 18.1499 45.5181 20.0249ZM39.4756 20.0249C39.4756 19.0581 39.3145 18.1865 38.9922 17.4102C38.6846 16.6191 38.2598 15.9453 37.7178 15.3887C37.1758 14.8174 36.5386 14.3853 35.8062 14.0923C35.0884 13.7847 34.3193 13.6309 33.499 13.6309C32.6787 13.6309 31.9023 13.7847 31.1699 14.0923C30.4521 14.3853 29.8223 14.8174 29.2803 15.3887C28.7529 15.9453 28.3354 16.6191 28.0278 17.4102C27.7202 18.1865 27.5664 19.0581 27.5664 20.0249C27.5664 20.9331 27.7202 21.7754 28.0278 22.5518C28.3354 23.3281 28.7529 24.002 29.2803 24.5732C29.8223 25.1445 30.4521 25.5986 31.1699 25.9355C31.9023 26.2578 32.6787 26.4189 33.499 26.4189C34.3193 26.4189 35.0884 26.2651 35.8062 25.9575C36.5386 25.6499 37.1758 25.2178 37.7178 24.6611C38.2598 24.1045 38.6846 23.4307 38.9922 22.6396C39.3145 21.8486 39.4756 20.9771 39.4756 20.0249ZM63.3291 20.0249C63.3291 19.2046 63.168 18.4136 62.8457 17.6519C62.5381 16.8755 62.1133 16.1943 61.5713 15.6084C61.0293 15.0078 60.3921 14.5317 59.6597 14.1802C58.9419 13.814 58.1729 13.6309 57.3525 13.6309C56.5322 13.6309 55.7559 13.77 55.0234 14.0483C54.3057 14.3267 53.6758 14.7368 53.1338 15.2788C52.6064 15.8208 52.189 16.4946 51.8813 17.3003C51.5737 18.0913 51.4199 18.9995 51.4199 20.0249C51.4199 21.0063 51.5737 21.8926 51.8813 22.6836C52.189 23.46 52.6064 24.1265 53.1338 24.6831C53.6758 25.2397 54.3057 25.6719 55.0234 25.9795C55.7559 26.2725 56.5322 26.4189 57.3525 26.4189C58.1729 26.4189 58.9419 26.2432 59.6597 25.8916C60.3921 25.5254 61.0293 25.0493 61.5713 24.4634C62.1133 23.8628 62.5381 23.1816 62.8457 22.4199C63.168 21.6436 63.3291 20.8452 63.3291 20.0249ZM69.3716 29.0337C69.3716 30.689 69.0566 32.2417 68.4268 33.6919C67.7969 35.1421 66.9326 36.4092 65.834 37.4932C64.75 38.5771 63.4756 39.4341 62.0107 40.064C60.5605 40.6938 59.0078 41.0088 57.3525 41.0088L54.3423 40.9648V34.9663L57.3086 35.0103C58.2461 35.0103 59.0444 34.8857 59.7036 34.6367C60.3628 34.4023 60.9194 34.0728 61.3735 33.6479C61.8276 33.2378 62.1865 32.7617 62.4502 32.2197C62.7285 31.6777 62.9482 31.1064 63.1094 30.5059C62.875 30.8867 62.5381 31.2017 62.0986 31.4507C61.6592 31.6851 61.1685 31.8755 60.6265 32.022C60.0991 32.1831 59.5425 32.293 58.9565 32.3516C58.3853 32.4102 57.8506 32.4395 57.3525 32.4395C55.6973 32.4395 54.1372 32.1538 52.6724 31.5825C51.2222 31.0112 49.9478 30.1982 48.8491 29.1436C47.7651 28.0742 46.9082 26.7705 46.2783 25.2324C45.6484 23.6943 45.3335 21.9585 45.3335 20.0249C45.3335 18.2524 45.6484 16.6045 46.2783 15.0811C46.9082 13.5576 47.7651 12.2393 48.8491 11.126C49.9478 10.0127 51.2222 9.14111 52.6724 8.51123C54.1372 7.88135 55.6973 7.56641 57.3525 7.56641C58.1143 7.56641 58.8687 7.66162 59.6157 7.85205C60.3628 8.04248 61.0879 8.30615 61.791 8.64307C62.4941 8.97998 63.1606 9.37549 63.7905 9.82959C64.4351 10.2837 65.0356 10.7744 65.5923 11.3018L67.9214 8.51123H69.3716V29.0337ZM94.4556 20.0249C94.4556 21.7827 94.1406 23.4233 93.5107 24.9468C92.8809 26.4556 92.0239 27.7666 90.9399 28.8799C89.856 29.9785 88.5815 30.8501 87.1167 31.4946C85.6665 32.1245 84.1064 32.4395 82.4365 32.4395C80.7812 32.4395 79.2212 32.1245 77.7563 31.4946C76.3062 30.8501 75.0317 29.9785 73.9331 28.8799C72.8491 27.7666 71.9922 26.4556 71.3623 24.9468C70.7324 23.4233 70.4175 21.7827 70.4175 20.0249C70.4175 18.2378 70.7324 16.5825 71.3623 15.0591C71.9922 13.5356 72.8491 12.2246 73.9331 11.126C75.0317 10.0127 76.3062 9.14111 77.7563 8.51123C79.2212 7.88135 80.7812 7.56641 82.4365 7.56641C84.1064 7.56641 85.6665 7.8667 87.1167 8.46729C88.5815 9.05322 89.856 9.89551 90.9399 10.9941C92.0239 12.0781 92.8809 13.3892 93.5107 14.9272C94.1406 16.4507 94.4556 18.1499 94.4556 20.0249ZM88.4131 20.0249C88.4131 19.0581 88.252 18.1865 87.9297 17.4102C87.6221 16.6191 87.1973 15.9453 86.6553 15.3887C86.1133 14.8174 85.4761 14.3853 84.7437 14.0923C84.0259 13.7847 83.2568 13.6309 82.4365 13.6309C81.6162 13.6309 80.8398 13.7847 80.1074 14.0923C79.3896 14.3853 78.7598 14.8174 78.2178 15.3887C77.6904 15.9453 77.2729 16.6191 76.9653 17.4102C76.6577 18.1865 76.5039 19.0581 76.5039 20.0249C76.5039 20.9331 76.6577 21.7754 76.9653 22.5518C77.2729 23.3281 77.6904 24.002 78.2178 24.5732C78.7598 25.1445 79.3896 25.5986 80.1074 25.9355C80.8398 26.2578 81.6162 26.4189 82.4365 26.4189C83.2568 26.4189 84.0259 26.2651 84.7437 25.9575C85.4761 25.6499 86.1133 25.2178 86.6553 24.6611C87.1973 24.1045 87.6221 23.4307 87.9297 22.6396C88.252 21.8486 88.4131 20.9771 88.4131 20.0249Z" fill="white"/>
</svg>
